Coordinates
version=1
nRows=16
nColumns=40
inDegrees=yes

Units are S.I. units (second, meters, Newtons, ...)
Angles are in degrees.

endheader
time	pelvis_tilt	pelvis_list	pelvis_rotation	pelvis_tx	pelvis_ty	pelvis_tz	hip_flexion_r	hip_adduction_r	hip_rotation_r	knee_angle_r	knee_angle_r_beta	ankle_angle_r	subtalar_angle_r	mtp_angle_r	hip_flexion_l	hip_adduction_l	hip_rotation_l	knee_angle_l	knee_angle_l_beta	ankle_angle_l	subtalar_angle_l	mtp_angle_l	lumbar_extension	lumbar_bending	lumbar_rotation	arm_flex_r	arm_add_r	arm_rot_r	elbow_flex_r	pro_sup_r	wrist_flex_r	wrist_dev_r	arm_flex_l	arm_add_l	arm_rot_l	elbow_flex_l	pro_sup_l	wrist_flex_l	wrist_dev_l
     35.02000000	     -2.49873614	     -4.19233995	      1.70524063	      0.89245834	      0.91243686	      0.55418803	     15.69084248	      5.34651289	    -10.88649033	     30.18478994	     30.18478994	     19.41944351	     -5.97488436	      0.74082644	     29.19494720	    -15.53954601	     -3.40155658	     54.02065578	     54.02065578	     18.22636609	    -19.47345878	     21.29675833	    -12.12255763	      8.17413858	      1.32739753	     16.41335081	    -14.70312453	    -20.04186947	     24.61861094	     47.18520055	      0.00000000	      0.00000000	      8.76068209	    -10.40209833	      3.56450947	     38.26556960	     46.33909867	      0.00000000	      0.00000000
     35.04057143	     -2.27243622	     -4.00464107	      2.32610643	      0.89040814	      0.91206856	      0.55439516	     15.24707025	      5.28789930	    -10.75373924	     30.32919467	     30.32919467	     19.71246347	     -7.02468046	      0.73081763	     30.07869089	    -14.67948013	     -2.72414201	     51.15945478	     51.15945478	     17.74682614	    -19.42053245	     20.81389863	    -12.23257973	      8.00476402	      1.27289054	     19.52546399	    -14.49440710	    -19.98376262	     25.82540601	     47.15008221	      0.00000000	      0.00000000	      6.12037623	     -9.65819687	      4.28590666	     35.76701773	     46.20734349	      0.00000000	      0.00000000
     35.06114286	     -2.13193648	     -3.78269652	      2.93685632	      0.88830870	      0.91205676	      0.55436911	     14.79305128	      5.20126556	    -10.60416060	     30.27458461	     30.27458461	     19.83738167	     -8.04785159	      0.60783749	     30.71960780	    -13.60106915	     -1.88054678	     47.76768887	     47.76768887	     16.28622495	    -19.30939677	     18.60906230	    -12.23902420	      7.76225073	      1.63155525	     22.63532331	    -14.54622270	    -19.71939753	     26.33760902	     47.11536435	      0.00000000	      0.00000000	      4.23026484	     -8.84172642	      5.49288525	     32.05317019	     46.01553344	      0.00000000	      0.00000000
     35.08171429	     -2.02504404	     -3.47535290	      3.53496628	      0.88624302	      0.91239635	      0.55407617	     14.29030189	      4.98637544	    -10.52530215	     30.09750716	     30.09750716	     19.93587412	     -8.84349704	      0.50250049	     31.16799773	    -12.25742335	     -0.75947305	     44.21997360	     44.21997360	     14.79756152	    -19.11167703	     17.02231010	    -12.27226467	      7.41038738	      1.80605756	     25.52236916	    -14.49820762	    -19.36178352	     28.09148891	     47.01490975	      0.00000000	      0.00000000	      1.78074793	     -8.30686039	      6.20896271	     30.05067285	     45.87141294	      0.00000000	      0.00000000
     35.10228571	     -1.96175413	     -3.09681165	      4.13344882	      0.88425299	      0.91314948	      0.55355800	     13.70563918	      4.66658369	    -10.55292713	     29.72296986	     29.72296986	     19.99864737	     -9.41239470	      0.57553315	     31.44295450	    -10.73320389	      0.59865307	     40.63256164	     40.63256164	     13.64572589	    -18.74309406	     16.87625322	    -12.25961193	      6.95267647	      2.08195128	     28.33304739	    -14.54223639	    -19.15406787	     29.78659347	     46.94417436	      0.00000000	      0.00000000	     -0.65832935	     -7.95363289	      6.53337218	     28.68907704	     45.78235862	      0.00000000	      0.00000000
     35.12285714	     -1.96320533	     -2.79803858	      4.69166649	      0.88233151	      0.91408547	      0.55301449	     13.08553719	      4.41926216	    -10.66641924	     29.15973783	     29.15973783	     20.00830313	     -9.77879366	      0.63515209	     31.64173088	     -9.39925274	      1.88677564	     37.14590405	     37.14590405	     12.35274477	    -18.00383228	     16.28917793	    -12.18784167	      6.58487048	      2.24092731	     31.24235148	    -14.51419030	    -18.80501750	     31.74693393	     46.85311912	      0.00000000	      0.00000000	     -3.05614667	     -7.70224060	      6.85897772	     27.35459387	     45.69115376	      0.00000000	      0.00000000
     35.14342857	     -2.00974141	     -2.64512128	      5.20467527	      0.88062121	      0.91502612	      0.55255380	     12.42910597	      4.30209348	    -10.94084442	     28.43827753	     28.43827753	     19.78420789	     -9.87897914	      0.12556805	     31.56748798	     -8.46821177	      2.73392471	     33.37604216	     33.37604216	      9.16041735	    -17.10863968	     10.15238308	    -12.10372465	      6.32067955	      2.60518718	     33.28700934	    -15.06748505	    -16.13396385	     35.76275994	     46.49109713	      0.00000000	      0.00000000	     -5.26977436	     -7.61768142	      7.84199183	     26.40676614	     45.48697374	      0.00000000	      0.00000000
     35.16400000	     -2.12701187	     -2.48356331	      5.71163170	      0.87897161	      0.91620895	      0.55206367	     11.75060576	      4.15849938	    -11.32013025	     27.55942236	     27.55942236	     19.64136433	     -9.72530276	     -0.02154880	     31.65851384	     -7.58082409	      3.50580818	     30.28630403	     30.28630403	      8.18009324	    -15.51688078	      9.31320338	    -11.93144159	      6.03257722	      2.79809378	     35.71275312	    -15.42854845	    -14.41569342	     38.84589996	     46.25723265	      0.00000000	      0.00000000	     -7.63162972	     -7.74287260	      8.57659347	     26.18287110	     45.32330238	      0.00000000	      0.00000000
     35.18457143	     -2.25231390	     -2.36152100	      6.13309566	      0.87746905	      0.91756766	      0.55173003	     11.02230199	      4.08010036	    -11.67017987	     26.58170399	     26.58170399	     19.53860931	     -9.41209622	      0.12429166	     31.66314675	     -6.91962113	      3.85030920	     27.51205515	     27.51205515	      7.84113838	    -13.56634348	      9.49935158	    -11.75397114	      5.70916956	      3.14981048	     38.50153763	    -15.63210422	    -14.17081614	     40.70945392	     46.18651097	      0.00000000	      0.00000000	     -9.55610778	     -7.83212103	      8.73428627	     25.59179216	     45.26474131	      0.00000000	      0.00000000
     35.20514286	     -2.43642065	     -2.31063116	      6.52599101	      0.87607072	      0.91880938	      0.55141959	     10.31754000	      4.04557719	    -12.17697713	     25.53822266	     25.53822266	     19.42051348	     -8.82065407	      0.19312021	     31.65069193	     -6.44780635	      3.86212848	     25.01197116	     25.01197116	      7.61159415	    -11.63758908	      9.45172465	    -11.54029415	      5.45908780	      3.26767379	     41.21564472	    -15.63482319	    -13.72734368	     43.07060948	     46.08611497	      0.00000000	      0.00000000	    -11.46418125	     -7.94216417	      8.86673051	     25.39194546	     45.20670421	      0.00000000	      0.00000000
     35.22571429	     -2.64986441	     -2.35469589	      6.87805499	      0.87481418	      0.91970981	      0.55112508	      9.66878320	      4.07569723	    -12.82179288	     24.55198567	     24.55198567	     19.29777951	     -7.97709678	     -0.13878624	     31.64077315	     -6.17477930	      3.55160276	     22.85969827	     22.85969827	      7.08052682	     -9.97598706	      8.12349646	    -11.39109662	      5.30127070	      3.50328107	     42.86450394	    -16.35471790	    -11.32933693	     48.17776662	     45.77703431	      0.00000000	      0.00000000	    -13.87423823	     -8.47654866	      9.33927561	     27.45879334	     45.08439013	      0.00000000	      0.00000000
     35.24628571	     -3.08914048	     -2.44079508	      7.16047710	      0.87340225	      0.92005352	      0.55082371	      9.44870055	      4.16628852	    -13.13759890	     23.85890748	     23.85890748	     19.21902311	     -7.67548759	     -0.04188076	     31.92207369	     -5.90989263	      3.33491558	     21.22927554	     21.22927554	      7.02726099	     -8.99788222	      8.27681463	    -10.86252385	      5.14074608	      4.00765915	     45.65160946	    -16.86401814	    -11.31577631	     49.58899548	     45.74090687	      0.00000000	      0.00000000	    -15.05772725	     -8.62465958	      9.39543438	     27.16512718	     45.05668335	      0.00000000	      0.00000000
     35.26685714	     -3.11791018	     -2.46801998	      7.44838660	      0.87261108	      0.92103191	      0.55050865	      8.49938774	      4.20828835	    -13.88021220	     22.75530365	     22.75530365	     19.22308038	     -6.46222557	     -0.13966963	     31.38579193	     -5.80489695	      2.54300844	     19.40245762	     19.40245762	      6.83383743	     -7.38825420	      7.31607625	    -10.95327700	      4.93314720	      3.78603812	     47.28913699	    -16.88607262	     -9.40858640	     54.48422000	     45.49430925	      0.00000000	      0.00000000	    -17.10203782	     -9.06556019	     10.13613586	     29.17708139	     44.93852997	      0.00000000	      0.00000000
     35.28742857	     -3.33884825	     -2.53673609	      7.69240643	      0.87168702	      0.92127162	      0.55008895	      7.98442125	      4.29572071	    -14.29633975	     22.03287086	     22.03287086	     19.27241382	     -5.85340927	     -0.08918611	     31.14638804	     -5.68420169	      1.99465573	     18.11493194	     18.11493194	      6.80803741	     -6.46577965	      7.25081119	    -10.74193414	      4.74880658	      3.69482538	     49.75194371	    -16.67719201	     -9.14127961	     56.57552654	     45.42376099	      0.00000000	      0.00000000	    -18.14694322	     -9.14905678	     10.34258915	     29.26233110	     44.90134714	      0.00000000	      0.00000000
     35.30800000	     -3.57412878	     -2.69943361	      7.91756900	      0.87086449	      0.92095138	      0.54957073	      7.62744548	      4.42210859	    -14.82046608	     21.59706260	     21.59706260	     19.46034062	     -5.11757234	     -0.11375608	     31.00329663	     -5.70049709	      1.43033292	     17.25972190	     17.25972190	      6.48348925	     -5.62823745	      6.30979767	    -10.56773514	      4.65791679	      3.78706907	     51.45855920	    -16.97850732	     -8.23817281	     60.29471025	     45.27731910	      0.00000000	      0.00000000	    -19.35210585	     -9.46301361	     10.66980173	     30.89837289	     44.86855615	      0.00000000	      0.00000000
     35.32857143	     -3.75592752	     -2.83840493	      8.10314924	      0.87016782	      0.92048046	      0.54896389	      7.26104675	      4.58796988	    -15.00423501	     21.23898777	     21.23898777	     19.63586515	     -4.91932540	     -0.09079905	     30.69724049	     -5.68621829	      1.12434074	     16.52775033	     16.52775033	      6.19840497	     -5.19461514	      6.24992995	    -10.40118802	      4.55099353	      3.77096645	     53.64542701	    -16.80381778	     -8.06016411	     61.97186409	     45.22573290	      0.00000000	      0.00000000	    -19.80076734	     -9.45990668	     10.82068699	     30.99721475	     44.85006677	      0.00000000	      0.00000000
